<svg width="496" height="589" viewBox="0 0 496 589" fill="none" xmlns="http://www.w3.org/2000/svg">
<path d="M248 589L189.11 487H306.89L248 589Z" fill="#F5F5F5"/>
<path d="M496 248C496 384.967 384.967 496 248 496C111.033 496 0 384.967 0 248C0 111.033 111.033 0 248 0C384.967 0 496 111.033 496 248Z" fill="#F5F5F5"/>
<path d="M11 248C11 117.109 117.109 11 248 11C378.891 11 485 117.109 485 248C485 378.891 378.891 485 248 485C117.109 485 11 378.891 11 248Z" fill="#257A1D"/>
<path d="M341.2 147.564L281.2 124.578H280.5C280.034 124.524 279.565 124.524 279.1 124.578H276.8H275.5H274.8L218 146.989L161.2 124.578C159.696 124.008 158.096 123.857 156.531 124.137C154.967 124.416 153.482 125.119 152.2 126.187C150.908 127.245 149.853 128.64 149.122 130.259C148.392 131.878 148.007 133.673 148 135.496V296.397C147.995 298.806 148.648 301.157 149.868 303.116C151.089 305.075 152.814 306.544 154.8 307.315L214.8 330.301C216.814 331.056 218.986 331.056 221 330.301L278 308.465L334.8 330.876C335.862 331.041 336.938 331.041 338 330.876C340.091 330.91 342.132 330.141 343.8 328.692C345.092 327.635 346.147 326.239 346.878 324.62C347.608 323.001 347.993 321.206 348 319.383V158.482C348.005 156.073 347.352 153.722 346.132 151.763C344.911 149.804 343.186 148.335 341.2 147.564ZM208 303.408L168 288.122V151.471L208 166.757V303.408ZM268 288.122L228 303.408V166.757L268 151.471V288.122ZM328 303.408L288 288.122V151.471L328 166.757V303.408Z" fill="white"/>
</svg>
